<?xml version="1.0" encoding="UTF-8" standalone="no"?>
<!DOCTYPE svg PUBLIC "-//W3C//DTD SVG 1.1//EN"
 "http://www.w3.org/Graphics/SVG/1.1/DTD/svg11.dtd">
<!-- Generated by graphviz version 9.0.0 (20230911.1827)
 -->
<!-- Title: 16 Pages: 1 -->
<svg width="80pt" height="157pt"
 viewBox="0.00 0.00 80.00 157.00" xmlns="http://www.w3.org/2000/svg" xmlns:xlink="http://www.w3.org/1999/xlink">
<g id="graph0" class="graph" transform="scale(1 1) rotate(0) translate(4 153)">
<title>16</title>
<polygon fill="white" stroke="none" points="-4,4 -4,-153 76,-153 76,4 -4,4"/>
<!-- 16 -->
<g id="node1" class="node">
<title>16</title>
<polygon fill="#8cff00" fill-opacity="0.533333" stroke="#ffe600" points="72,-65.5 0,-65.5 0,-41.75 72,-41.75 72,-65.5"/>
<text text-anchor="middle" x="36" y="-48.2" font-family="Times New Roman,serif" font-size="14.00">API 16*</text>
</g>
<!-- 52 -->
<g id="node3" class="node">
<title>52</title>
<polygon fill="#28ff00" fill-opacity="0.533333" stroke="#00ff00" points="72,-23.75 0,-23.75 0,0 72,0 72,-23.75"/>
<text text-anchor="middle" x="36" y="-6.45" font-family="Times New Roman,serif" font-size="14.00">API 52</text>
</g>
<!-- 16&#45;&gt;52 -->
<g id="edge3" class="edge">
<title>16&#45;&gt;52</title>
<path fill="none" stroke="black" d="M36,-41.34C36,-39.48 36,-37.49 36,-35.47"/>
<polygon fill="black" stroke="black" points="39.5,-35.56 36,-25.56 32.5,-35.56 39.5,-35.56"/>
</g>
<!-- 35 -->
<g id="node2" class="node">
<title>35</title>
<polygon fill="#1fff00" fill-opacity="0.533333" stroke="#55ff00" points="72,-149 0,-149 0,-125.25 72,-125.25 72,-149"/>
<text text-anchor="middle" x="36" y="-131.7" font-family="Times New Roman,serif" font-size="14.00">API 35</text>
</g>
<!-- 13 -->
<g id="node4" class="node">
<title>13</title>
<polygon fill="#07ff00" fill-opacity="0.533333" stroke="#00ff00" points="72,-107.25 0,-107.25 0,-83.5 72,-83.5 72,-107.25"/>
<text text-anchor="middle" x="36" y="-89.95" font-family="Times New Roman,serif" font-size="14.00">API 13</text>
</g>
<!-- 35&#45;&gt;13 -->
<g id="edge1" class="edge">
<title>35&#45;&gt;13</title>
<path fill="none" stroke="black" d="M36,-124.84C36,-122.98 36,-120.99 36,-118.97"/>
<polygon fill="black" stroke="black" points="39.5,-119.06 36,-109.06 32.5,-119.06 39.5,-119.06"/>
</g>
<!-- 13&#45;&gt;16 -->
<g id="edge2" class="edge">
<title>13&#45;&gt;16</title>
<path fill="none" stroke="black" d="M36,-83.09C36,-81.23 36,-79.24 36,-77.22"/>
<polygon fill="black" stroke="black" points="39.5,-77.31 36,-67.31 32.5,-77.31 39.5,-77.31"/>
</g>
</g>
</svg>
